<?xml version="1.0" encoding="UTF-8" standalone="no"?>
<!-- Generator: Adobe Illustrator 23.1.1, SVG Export Plug-In . SVG Version: 6.00 Build 0)  -->

<svg
   xmlns:dc="http://purl.org/dc/elements/1.1/"
   xmlns:cc="http://creativecommons.org/ns#"
   xmlns:rdf="http://www.w3.org/1999/02/22-rdf-syntax-ns#"
   xmlns:svg="http://www.w3.org/2000/svg"
   xmlns="http://www.w3.org/2000/svg"
   xmlns:sodipodi="http://sodipodi.sourceforge.net/DTD/sodipodi-0.dtd"
   xmlns:inkscape="http://www.inkscape.org/namespaces/inkscape"
   version="1.1"
   id="Layer_3"
   x="0px"
   y="0px"
   viewBox="0 0 639.80999 124.08"
   xml:space="preserve"
   sodipodi:docname="cqt_logo.svg"
   width="639.81"
   height="124.08"
   inkscape:version="0.92.4 5da689c313, 2019-01-14"><metadata
   id="metadata78"><rdf:RDF><cc:Work
       rdf:about=""><dc:format>image/svg+xml</dc:format><dc:type
         rdf:resource="http://purl.org/dc/dcmitype/StillImage" /><dc:title /></cc:Work></rdf:RDF></metadata><defs
   id="defs76" /><sodipodi:namedview
   pagecolor="#ffffff"
   bordercolor="#666666"
   borderopacity="1"
   objecttolerance="10"
   gridtolerance="10"
   guidetolerance="10"
   inkscape:pageopacity="0"
   inkscape:pageshadow="2"
   inkscape:window-width="1600"
   inkscape:window-height="836"
   id="namedview74"
   showgrid="false"
   fit-margin-top="0"
   fit-margin-left="0"
   fit-margin-right="0"
   fit-margin-bottom="0"
   inkscape:zoom="0.39645207"
   inkscape:cx="-511.84402"
   inkscape:cy="-31.544761"
   inkscape:window-x="0"
   inkscape:window-y="27"
   inkscape:window-maximized="1"
   inkscape:current-layer="Layer_3" />
<style
   type="text/css"
   id="style2">
	.Arched_x0020_Green{fill:url(#SVGID_1_);stroke:#FFFFFF;stroke-width:0.25;stroke-miterlimit:1;}
</style>
<linearGradient
   id="SVGID_1_"
   gradientUnits="userSpaceOnUse"
   x1="0"
   y1="595.28027"
   x2="0.70709997"
   y2="594.57318">
	<stop
   offset="0"
   style="stop-color:#20AB4B"
   id="stop4" />
	<stop
   offset="0.9831"
   style="stop-color:#1D361D"
   id="stop6" />
</linearGradient>
<path
   d="M 104.05,87.36 H 42.29 C 35.82,87.36 30.53,82.07 30.53,75.6 V 41.21 c 0,-6.47 5.29,-11.76 11.76,-11.76 h 61.76 C 104.82,17.27 110.75,6.6 119.48,0.01 H 29.07 C 13.01,0.01 0,14.4 0,32.16 v 52.48 c 0,17.76 13.02,32.15 29.07,32.15 h 90.41 C 110.75,110.2 104.82,99.54 104.05,87.36 Z"
   id="path9"
   style="fill:#333333;fill-opacity:0.80000001"
   inkscape:connector-curvature="0" />
<polygon
   points="321.48,176.5 402.71,176.5 402.71,263.85 433.44,263.85 433.44,176.5 514.52,176.5 514.52,147.07 321.48,147.07 "
   id="polygon11"
   style="fill:#333333;fill-opacity:0.80000001"
   transform="translate(-94.1,-147.06)" />
<rect
   x="436.17001"
   y="0.010007325"
   width="6.9099998"
   height="116.78"
   id="rect13"
   style="fill:#333333;fill-opacity:0.80000001" />
<path
   d="m 467.99,24.66 h -7.81 c -1.31,0 -2.33,-0.7 -3.04,-2.11 -0.58,-1.11 -0.87,-2.39 -0.87,-3.84 V 7.82 c 0,-1.45 0.29,-2.75 0.87,-3.91 0.72,-1.43 1.73,-2.14 3.04,-2.14 h 7.81 v 1.94 h -5.98 c -0.83,0 -1.47,0.5 -1.94,1.49 -0.37,0.79 -0.55,1.66 -0.55,2.63 v 10.89 c 0,0.95 0.18,1.8 0.55,2.56 0.46,0.99 1.11,1.49 1.94,1.49 h 5.98 z"
   id="path15"
   style="fill:#333333;fill-opacity:0.80000001"
   inkscape:connector-curvature="0" />
<path
   d="m 485.28,11.87 c 0,1.24 -0.21,2.34 -0.62,3.29 -0.55,1.27 -1.37,1.9 -2.46,1.9 h -4.84 v -1.9 h 2.87 c 0.67,0 1.16,-0.47 1.49,-1.42 0.23,-0.67 0.35,-1.42 0.35,-2.25 0,-0.67 -0.08,-1.28 -0.24,-1.83 -0.21,-0.81 -0.54,-1.21 -1,-1.21 h -3.42 c -0.95,0 -1.58,0.41 -1.9,1.24 -0.21,0.51 -0.31,1.33 -0.31,2.46 v 6.88 c 0,1.34 0.13,2.24 0.38,2.7 0.39,0.67 1.2,1 2.42,1 -0.48,0 1.53,0 6.05,0 v 1.9 h -8.09 c -1.75,0 -2.94,-0.55 -3.56,-1.66 -0.44,-0.8 -0.66,-2.15 -0.66,-4.04 v -6.71 c 0,-1.87 0.22,-3.2 0.66,-4.01 0.62,-1.11 1.81,-1.66 3.56,-1.66 h 6.26 c 1.06,0 1.88,0.66 2.46,1.97 0.39,0.98 0.6,2.1 0.6,3.35 z"
   id="path17"
   style="fill:#333333;fill-opacity:0.80000001"
   inkscape:connector-curvature="0" />
<path
   d="M 503.02,24.62 H 499.6 V 12.45 c 0,-1.24 -0.08,-2.11 -0.24,-2.59 -0.3,-0.95 -0.95,-1.42 -1.94,-1.42 h -4.81 v 16.18 h -3.46 V 6.54 h 9.65 c 1.75,0 2.93,0.47 3.53,1.42 0.46,0.71 0.69,2.01 0.69,3.87 z"
   id="path19"
   style="fill:#333333;fill-opacity:0.80000001"
   inkscape:connector-curvature="0" />
<path
   d="m 515.73,8.44 h -4.46 V 19.5 c 0,1.43 0.22,2.34 0.65,2.73 0.35,0.32 1.21,0.48 2.59,0.48 v 1.9 h -2.49 c -1.78,0 -2.92,-0.3 -3.44,-0.9 -0.52,-0.6 -0.78,-1.8 -0.78,-3.6 V 1.75 h 3.46 v 4.77 h 4.46 v 1.92 z"
   id="path21"
   style="fill:#333333;fill-opacity:0.80000001"
   inkscape:connector-curvature="0" />
<path
   d="m 527.04,8.17 h -1.73 c -1.43,-0.02 -2.34,0.29 -2.73,0.93 -0.26,0.41 -0.38,1.44 -0.38,3.08 v 12.45 h -3.46 v -12.9 c 0,-3.64 1.98,-5.46 5.95,-5.46 h 2.35 z"
   id="path23"
   style="fill:#333333;fill-opacity:0.80000001"
   inkscape:connector-curvature="0" />
<path
   d="m 543.57,11.87 c 0,1.24 -0.21,2.34 -0.62,3.29 -0.55,1.27 -1.37,1.9 -2.46,1.9 h -4.84 v -1.9 h 2.87 c 0.67,0 1.16,-0.47 1.48,-1.42 0.23,-0.67 0.35,-1.42 0.35,-2.25 0,-0.67 -0.08,-1.28 -0.24,-1.83 -0.21,-0.81 -0.54,-1.21 -1,-1.21 h -3.42 c -0.95,0 -1.58,0.41 -1.9,1.24 -0.21,0.51 -0.31,1.33 -0.31,2.46 v 6.88 c 0,1.34 0.12,2.24 0.38,2.7 0.39,0.67 1.2,1 2.42,1 -0.48,0 1.53,0 6.05,0 v 1.9 h -8.09 c -1.75,0 -2.94,-0.55 -3.56,-1.66 -0.44,-0.8 -0.66,-2.15 -0.66,-4.04 v -6.71 c 0,-1.87 0.22,-3.2 0.66,-4.01 0.62,-1.11 1.81,-1.66 3.56,-1.66 h 6.26 c 1.06,0 1.88,0.66 2.46,1.97 0.4,0.98 0.61,2.1 0.61,3.35 z"
   id="path25"
   style="fill:#333333;fill-opacity:0.80000001"
   inkscape:connector-curvature="0" />
<path
   d="m 583.34,18.92 c 0,1.89 -0.23,3.24 -0.69,4.04 -0.62,1.11 -1.79,1.66 -3.52,1.66 h -6.05 c -1.73,0 -2.91,-0.55 -3.53,-1.66 -0.46,-0.8 -0.69,-2.15 -0.69,-4.04 v -6.71 c 0,-1.87 0.23,-3.2 0.69,-4.01 0.62,-1.11 1.8,-1.66 3.53,-1.66 h 6.05 c 1.73,0 2.9,0.55 3.52,1.66 0.46,0.81 0.69,2.14 0.69,4.01 z m -3.49,-6.74 c 0,-1.15 -0.09,-1.98 -0.28,-2.49 -0.32,-0.83 -0.96,-1.24 -1.9,-1.24 h -3.14 c -0.95,0 -1.58,0.41 -1.9,1.24 -0.21,0.51 -0.31,1.34 -0.31,2.49 v 6.46 c 0,0.99 0.22,1.88 0.66,2.66 0.53,0.95 1.24,1.42 2.14,1.42 h 1.97 c 1.22,0 2.02,-0.35 2.39,-1.04 0.25,-0.46 0.38,-1.36 0.38,-2.7 v -6.8 z"
   id="path27"
   style="fill:#333333;fill-opacity:0.80000001"
   inkscape:connector-curvature="0" />
<path
   d="m 597.17,8.17 h -1.73 c -1.43,-0.02 -2.34,0.29 -2.73,0.93 -0.25,0.41 -0.38,1.44 -0.38,3.08 v 12.45 h -3.46 v -12.9 c 0,-3.64 1.98,-5.46 5.95,-5.46 h 2.35 z"
   id="path29"
   style="fill:#333333;fill-opacity:0.80000001"
   inkscape:connector-curvature="0" />
<path
   d="m 471.97,64.54 c 0,1.45 -0.28,2.73 -0.83,3.84 -0.71,1.4 -1.73,2.11 -3.04,2.11 h -2.21 l 1.04,2.35 h -2.35 l -1.04,-2.35 h -3.56 c -1.31,0 -2.33,-0.7 -3.04,-2.11 -0.55,-1.11 -0.83,-2.39 -0.83,-3.84 V 53.65 c 0,-1.45 0.27,-2.75 0.83,-3.91 0.71,-1.43 1.73,-2.14 3.04,-2.14 h 8.12 c 1.31,0 2.33,0.71 3.04,2.14 0.55,1.15 0.83,2.46 0.83,3.91 z m -3.25,0 V 53.65 c 0,-0.97 -0.17,-1.84 -0.52,-2.63 -0.46,-0.99 -1.12,-1.49 -1.97,-1.49 h -4.39 c -0.85,0 -1.51,0.5 -1.97,1.49 -0.35,0.79 -0.52,1.66 -0.52,2.63 v 10.89 c 0,0.95 0.17,1.8 0.52,2.56 0.46,0.99 1.12,1.49 1.97,1.49 h 4.39 c 0.85,0 1.51,-0.5 1.97,-1.49 0.35,-0.76 0.52,-1.62 0.52,-2.56 z"
   id="path31"
   style="fill:#333333;fill-opacity:0.80000001"
   inkscape:connector-curvature="0" />
<path
   d="m 489.91,70.42 h -9.68 c -1.75,0 -2.93,-0.47 -3.53,-1.42 -0.46,-0.74 -0.69,-2.03 -0.69,-3.87 V 52.34 h 3.39 v 12.13 c 0,1.24 0.09,2.12 0.28,2.63 0.3,0.92 0.95,1.38 1.94,1.38 h 4.84 V 52.33 h 3.46 v 18.09 z"
   id="path33"
   style="fill:#333333;fill-opacity:0.80000001"
   inkscape:connector-curvature="0" />
<path
   d="m 506.86,70.45 h -9.61 c -1.22,0 -2.16,-0.62 -2.8,-1.87 -0.53,-0.99 -0.79,-2.16 -0.79,-3.49 0,-1.34 0.26,-2.52 0.79,-3.56 0.64,-1.27 1.58,-1.9 2.8,-1.9 h 4.63 v 1.9 c -0.32,0 -0.74,0 -1.24,0 -0.51,-0.02 -0.85,-0.03 -1.04,-0.03 -0.99,0 -1.66,0.19 -2,0.55 -0.44,0.46 -0.66,1.38 -0.66,2.77 0,0.78 0.1,1.52 0.31,2.21 0.3,1.01 0.74,1.52 1.31,1.52 h 4.87 V 57.31 c 0,-0.99 -0.11,-1.71 -0.34,-2.14 -0.35,-0.6 -0.97,-0.9 -1.87,-0.9 h -4.39 v -1.9 h 5.81 c 1.75,0 2.93,0.47 3.53,1.42 0.46,0.71 0.69,2.01 0.69,3.87 z"
   id="path35"
   style="fill:#333333;fill-opacity:0.80000001"
   inkscape:connector-curvature="0" />
<path
   d="m 525.39,70.45 h -3.42 V 58.28 c 0,-1.25 -0.08,-2.11 -0.24,-2.59 -0.3,-0.95 -0.95,-1.42 -1.94,-1.42 h -4.81 v 16.18 h -3.46 V 52.37 h 9.65 c 1.75,0 2.93,0.47 3.53,1.42 0.46,0.71 0.69,2.01 0.69,3.87 z"
   id="path37"
   style="fill:#333333;fill-opacity:0.80000001"
   inkscape:connector-curvature="0" />
<path
   d="m 538.1,54.27 h -4.46 v 11.06 c 0,1.43 0.22,2.34 0.66,2.73 0.35,0.32 1.21,0.48 2.59,0.48 v 1.9 h -2.49 c -1.78,0 -2.92,-0.3 -3.44,-0.9 -0.52,-0.6 -0.78,-1.8 -0.78,-3.6 V 47.58 h 3.46 v 4.77 h 4.46 z"
   id="path39"
   style="fill:#333333;fill-opacity:0.80000001"
   inkscape:connector-curvature="0" />
<path
   d="m 555.39,70.42 h -9.68 c -1.75,0 -2.93,-0.47 -3.53,-1.42 -0.46,-0.74 -0.69,-2.03 -0.69,-3.87 V 52.34 h 3.39 v 12.13 c 0,1.24 0.09,2.12 0.28,2.63 0.3,0.92 0.95,1.38 1.94,1.38 h 4.84 V 52.33 h 3.46 v 18.09 z"
   id="path41"
   style="fill:#333333;fill-opacity:0.80000001"
   inkscape:connector-curvature="0" />
<path
   d="m 581.98,70.45 h -3.42 V 58.28 c 0,-1.25 -0.08,-2.11 -0.24,-2.59 -0.3,-0.95 -0.95,-1.42 -1.94,-1.42 h -3.63 v 16.18 h -3.42 V 54.27 h -5.81 v 16.18 h -3.46 V 52.37 h 17.7 c 1.75,0 2.93,0.47 3.53,1.42 0.46,0.71 0.69,2.01 0.69,3.87 z"
   id="path43"
   style="fill:#333333;fill-opacity:0.80000001"
   inkscape:connector-curvature="0" />
<path
   d="m 469.03,95.38 h -4.91 v 21.05 h -3.46 V 95.38 h -4.5 v -1.9 h 12.86 v 1.9 z"
   id="path45"
   style="fill:#333333;fill-opacity:0.80000001"
   inkscape:connector-curvature="0" />
<path
   d="m 483.75,103.68 c 0,1.24 -0.21,2.34 -0.62,3.29 -0.55,1.27 -1.37,1.9 -2.46,1.9 h -4.84 v -1.9 h 2.87 c 0.67,0 1.16,-0.47 1.49,-1.42 0.23,-0.67 0.35,-1.42 0.35,-2.25 0,-0.67 -0.08,-1.28 -0.24,-1.83 -0.21,-0.8 -0.54,-1.21 -1,-1.21 h -3.42 c -0.95,0 -1.58,0.41 -1.9,1.24 -0.21,0.51 -0.31,1.33 -0.31,2.46 v 6.88 c 0,1.34 0.13,2.24 0.38,2.7 0.39,0.67 1.2,1 2.42,1 -0.48,0 1.53,0 6.05,0 v 1.9 h -8.09 c -1.75,0 -2.94,-0.55 -3.56,-1.66 -0.44,-0.8 -0.66,-2.15 -0.66,-4.04 v -6.71 c 0,-1.87 0.22,-3.21 0.66,-4.01 0.62,-1.11 1.81,-1.66 3.56,-1.66 h 6.26 c 1.06,0 1.88,0.66 2.46,1.97 0.4,0.99 0.6,2.1 0.6,3.35 z"
   id="path47"
   style="fill:#333333;fill-opacity:0.80000001"
   inkscape:connector-curvature="0" />
<path
   d="m 498.3,116.43 h -6.88 c -1.75,0 -2.94,-0.55 -3.56,-1.66 -0.44,-0.8 -0.66,-2.15 -0.66,-4.04 v -6.71 c 0,-1.87 0.22,-3.21 0.66,-4.01 0.62,-1.11 1.81,-1.66 3.56,-1.66 h 6.88 v 1.9 h -5.43 c -0.95,0 -1.58,0.43 -1.9,1.28 -0.21,0.51 -0.31,1.33 -0.31,2.46 v 7.09 c 0,1.27 0.15,2.12 0.45,2.56 0.37,0.55 1.15,0.85 2.35,0.9 0.62,0.05 1.43,0.06 2.42,0.04 1.38,-0.02 2.19,-0.04 2.42,-0.04 z"
   id="path49"
   style="fill:#333333;fill-opacity:0.80000001"
   inkscape:connector-curvature="0" />
<path
   d="m 516.04,116.43 h -3.42 v -12.17 c 0,-1.24 -0.08,-2.11 -0.24,-2.59 -0.3,-0.95 -0.95,-1.42 -1.94,-1.42 h -4.8 v 16.18 h -3.49 V 93.58 h 3.49 v 4.77 h 6.19 c 1.75,0 2.93,0.47 3.53,1.42 0.46,0.71 0.69,2.01 0.69,3.87 v 12.79 z"
   id="path51"
   style="fill:#333333;fill-opacity:0.80000001"
   inkscape:connector-curvature="0" />
<path
   d="m 534.2,116.43 h -3.42 v -12.17 c 0,-1.24 -0.08,-2.11 -0.24,-2.59 -0.3,-0.95 -0.95,-1.42 -1.94,-1.42 h -4.81 v 16.18 h -3.46 V 98.35 h 9.65 c 1.75,0 2.93,0.47 3.53,1.42 0.46,0.71 0.69,2.01 0.69,3.87 z"
   id="path53"
   style="fill:#333333;fill-opacity:0.80000001"
   inkscape:connector-curvature="0" />
<path
   d="m 552.89,110.73 c 0,1.89 -0.23,3.24 -0.69,4.04 -0.62,1.11 -1.8,1.66 -3.53,1.66 h -6.05 c -1.73,0 -2.91,-0.55 -3.53,-1.66 -0.46,-0.8 -0.69,-2.15 -0.69,-4.04 v -6.71 c 0,-1.87 0.23,-3.21 0.69,-4.01 0.62,-1.11 1.8,-1.66 3.53,-1.66 h 6.05 c 1.73,0 2.9,0.55 3.53,1.66 0.46,0.81 0.69,2.14 0.69,4.01 z m -3.5,-6.74 c 0,-1.15 -0.09,-1.98 -0.28,-2.49 -0.32,-0.83 -0.96,-1.24 -1.9,-1.24 h -3.14 c -0.95,0 -1.58,0.41 -1.9,1.24 -0.21,0.51 -0.31,1.34 -0.31,2.49 v 6.46 c 0,0.99 0.22,1.88 0.65,2.66 0.53,0.95 1.25,1.42 2.15,1.42 h 1.97 c 1.22,0 2.02,-0.34 2.39,-1.04 0.25,-0.46 0.38,-1.36 0.38,-2.7 v -6.8 z"
   id="path55"
   style="fill:#333333;fill-opacity:0.80000001"
   inkscape:connector-curvature="0" />
<path
   d="m 560.47,116.43 h -3.49 V 93.58 h 3.49 z"
   id="path57"
   style="fill:#333333;fill-opacity:0.80000001"
   inkscape:connector-curvature="0" />
<path
   d="m 579.04,110.73 c 0,1.89 -0.23,3.24 -0.69,4.04 -0.62,1.11 -1.79,1.66 -3.52,1.66 h -6.05 c -1.73,0 -2.91,-0.55 -3.53,-1.66 -0.46,-0.8 -0.69,-2.15 -0.69,-4.04 v -6.71 c 0,-1.87 0.23,-3.21 0.69,-4.01 0.62,-1.11 1.8,-1.66 3.53,-1.66 h 6.05 c 1.73,0 2.9,0.55 3.52,1.66 0.46,0.81 0.69,2.14 0.69,4.01 z m -3.49,-6.74 c 0,-1.15 -0.09,-1.98 -0.28,-2.49 -0.32,-0.83 -0.96,-1.24 -1.9,-1.24 h -3.14 c -0.95,0 -1.58,0.41 -1.9,1.24 -0.21,0.51 -0.31,1.34 -0.31,2.49 v 6.46 c 0,0.99 0.22,1.88 0.66,2.66 0.53,0.95 1.24,1.42 2.14,1.42 h 1.97 c 1.22,0 2.02,-0.34 2.39,-1.04 0.25,-0.46 0.38,-1.36 0.38,-2.7 v -6.8 z"
   id="path59"
   style="fill:#333333;fill-opacity:0.80000001"
   inkscape:connector-curvature="0" />
<path
   d="m 596.99,118.37 c 0,1.89 0.42,3.24 -0.04,4.05 -0.62,1.11 -1.8,1.66 -3.53,1.66 h -5.04 v -1.94 c 0.71,0.02 1.32,0.04 1.83,0.04 1.54,0 2.56,-0.17 3.04,-0.52 0.64,-0.44 0.31,-1.43 0.31,-2.97 l -0.03,-18.43 c -0.3,0 -0.88,0 -1.73,0 -0.74,-0.02 -1.31,-0.04 -1.73,-0.04 -1.75,0 -2.81,0.45 -3.18,1.35 -0.18,0.42 -0.27,1.66 -0.24,3.73 l 0.04,5.6 c 0,1.11 0.1,1.9 0.31,2.38 0.32,0.79 0.95,1.18 1.87,1.18 h 3.04 v 1.94 h -4.46 c -1.75,0 -2.94,-0.55 -3.56,-1.66 -0.46,-0.81 -0.69,-2.15 -0.69,-4.05 v -6.71 c 0,-1.87 0.24,-3.21 0.73,-4.01 0.62,-1.11 1.8,-1.66 3.53,-1.66 H 597 v 20.06 z"
   id="path61"
   style="fill:#333333;fill-opacity:0.80000001"
   inkscape:connector-curvature="0" />
<path
   d="m 605.34,96.49 h -3.49 v -2.94 h 3.49 z m 0,19.94 h -3.49 V 98.35 h 3.49 z"
   id="path63"
   style="fill:#333333;fill-opacity:0.80000001"
   inkscape:connector-curvature="0" />
<path
   d="m 623.5,103.68 c 0,1.24 -0.21,2.34 -0.62,3.29 -0.55,1.27 -1.37,1.9 -2.46,1.9 h -4.84 v -1.9 h 2.87 c 0.67,0 1.16,-0.47 1.49,-1.42 0.23,-0.67 0.35,-1.42 0.35,-2.25 0,-0.67 -0.08,-1.28 -0.24,-1.83 -0.21,-0.8 -0.54,-1.21 -1,-1.21 h -3.42 c -0.95,0 -1.58,0.41 -1.9,1.24 -0.21,0.51 -0.31,1.33 -0.31,2.46 v 6.88 c 0,1.34 0.13,2.24 0.38,2.7 0.39,0.67 1.2,1 2.42,1 -0.48,0 1.53,0 6.05,0 v 1.9 h -8.09 c -1.75,0 -2.94,-0.55 -3.56,-1.66 -0.44,-0.8 -0.66,-2.15 -0.66,-4.04 v -6.71 c 0,-1.87 0.22,-3.21 0.66,-4.01 0.62,-1.11 1.81,-1.66 3.56,-1.66 h 6.26 c 1.06,0 1.88,0.66 2.46,1.97 0.4,0.99 0.6,2.1 0.6,3.35 z"
   id="path65"
   style="fill:#333333;fill-opacity:0.80000001"
   inkscape:connector-curvature="0" />
<path
   d="m 639.81,111.42 c 0,1.17 -0.17,2.22 -0.52,3.14 -0.48,1.25 -1.23,1.87 -2.25,1.87 h -9.09 v -1.9 h 7.29 c 0.55,0 0.98,-0.37 1.28,-1.11 0.21,-0.55 0.31,-1.16 0.31,-1.83 0,-0.67 -0.1,-1.28 -0.31,-1.83 -0.3,-0.76 -0.73,-1.14 -1.28,-1.14 h -5.39 c -1.06,0 -1.88,-0.68 -2.45,-2.04 -0.46,-1.04 -0.69,-2.17 -0.69,-3.39 0,-1.27 0.24,-2.34 0.73,-3.21 0.58,-1.11 1.44,-1.66 2.59,-1.66 h 7.61 v 1.94 h -6.39 c -0.49,0 -0.85,0.37 -1.11,1.11 -0.19,0.51 -0.28,1.08 -0.28,1.73 0,0.62 0.09,1.2 0.28,1.73 0.25,0.71 0.62,1.07 1.11,1.07 h 5.81 c 0.97,0 1.71,0.71 2.21,2.14 0.35,1.05 0.54,2.18 0.54,3.38 z"
   id="path67"
   style="fill:#333333;fill-opacity:0.80000001"
   inkscape:connector-curvature="0" />
<path
   d="m 565.61,9.08 h -3.67 v 15.56 h -3.42 V 6.69 c 0,-1.8 0.24,-3.03 0.73,-3.7 0.58,-0.81 1.74,-1.21 3.49,-1.21 h 2.87 v 1.97 l -1.35,-0.03 c -1.06,0 -1.74,0.32 -2.04,0.97 -0.18,0.37 -0.28,1.19 -0.28,2.46 h 3.67 z"
   id="path69"
   style="fill:#333333;fill-opacity:0.80000001"
   inkscape:connector-curvature="0" />
<path
   d="m 301.61,36.44 h -31.55 c 0.65,1.46 1.02,3.07 1.02,4.76 v 34.39 c 0,6.47 -5.29,11.76 -11.76,11.76 H 220.19 V 62.43 h -29.96 v 24.92 h -36.98 c -6.47,0 -11.76,-5.29 -11.76,-11.76 V 41.2 c 0,-6.47 5.29,-11.76 11.76,-11.76 h 67.14 V 0 h -80.36 c -16.06,0 -29.07,14.39 -29.07,32.15 v 52.48 c 0,17.76 13.02,32.15 29.07,32.15 h 132.51 c 16.06,0 29.07,-14.39 29.08,-32.15 V 36.44 Z"
   id="path71"
   style="fill:#333333;fill-opacity:0.80000001"
   inkscape:connector-curvature="0" />
</svg>