<?xml version="1.0" encoding="UTF-8" standalone="no"?>
<!-- Created with Inkscape (http://www.inkscape.org/) -->

<svg
   xmlns:dc="http://purl.org/dc/elements/1.1/"
   xmlns:cc="http://creativecommons.org/ns#"
   xmlns:rdf="http://www.w3.org/1999/02/22-rdf-syntax-ns#"
   xmlns:svg="http://www.w3.org/2000/svg"
   xmlns="http://www.w3.org/2000/svg"
   xmlns:sodipodi="http://sodipodi.sourceforge.net/DTD/sodipodi-0.dtd"
   xmlns:inkscape="http://www.inkscape.org/namespaces/inkscape"
   width="166.63701mm"
   height="67.922638mm"
   viewBox="0 0 166.63701 67.922638"
   version="1.1"
   id="svg8"
   inkscape:version="0.92.4 5da689c313, 2019-01-14"
   sodipodi:docname="quantumsg_logo.svg">
  <defs
     id="defs2" />
  <sodipodi:namedview
     id="base"
     pagecolor="#ffffff"
     bordercolor="#666666"
     borderopacity="1.0"
     inkscape:pageopacity="0.0"
     inkscape:pageshadow="2"
     inkscape:zoom="0.7"
     inkscape:cx="115.11322"
     inkscape:cy="97.414587"
     inkscape:document-units="mm"
     inkscape:current-layer="layer1"
     showgrid="false"
     fit-margin-top="0"
     fit-margin-left="0"
     fit-margin-right="0"
     fit-margin-bottom="0"
     inkscape:window-width="1600"
     inkscape:window-height="836"
     inkscape:window-x="0"
     inkscape:window-y="27"
     inkscape:window-maximized="1" />
  <metadata
     id="metadata5">
    <rdf:RDF>
      <cc:Work
         rdf:about="">
        <dc:format>image/svg+xml</dc:format>
        <dc:type
           rdf:resource="http://purl.org/dc/dcmitype/StillImage" />
        <dc:title />
      </cc:Work>
    </rdf:RDF>
  </metadata>
  <g
     inkscape:label="Layer 1"
     inkscape:groupmode="layer"
     id="layer1"
     transform="translate(-64.925986,-11.783071)">
    <g
       id="g835"
       transform="translate(29.666918,-71.360964)"
       style="fill:#333333;fill-opacity:0.80000001">
      <path
         style="fill:#333333;stroke-width:0.26458335;fill-opacity:0.80000001"
         d="m 162.28166,150.47098 c -1.24178,-0.36665 -3.48954,-1.93886 -4.09329,-2.86307 -0.34851,-0.53349 -0.27862,-0.62071 1.29404,-1.61509 l 1.66244,-1.05113 0.9287,0.73927 c 0.51078,0.4066 1.50435,0.88219 2.20795,1.05685 2.73869,0.67987 5.7322,-0.79261 5.7322,-2.81963 0,-1.51218 -1.09826,-2.24788 -5.87282,-3.93406 -4.78103,-1.68846 -7.05586,-4.56124 -6.347,-8.01535 1.13974,-5.55372 8.48801,-7.945 13.87645,-4.51569 1.12337,0.71494 2.52497,2.22185 2.27484,2.44576 -0.39268,0.35151 -3.16354,2.00115 -3.36129,2.00115 -0.13694,0 -0.31166,-0.16333 -0.38826,-0.36295 -0.0766,-0.19963 -0.66271,-0.61634 -1.30247,-0.92604 -1.52961,-0.74048 -3.8124,-0.75686 -5.22251,-0.0375 -2.82993,1.44372 -2.34774,3.96197 0.99295,5.18571 6.09708,2.23346 7.40131,2.98455 8.63661,4.97375 1.18464,1.90763 1.24083,3.68193 0.18456,5.82752 -0.9296,1.88829 -2.0156,2.85669 -4.19858,3.74392 -3.03489,1.08026 -4.58523,0.89691 -7.00452,0.16658 z m 22.29456,-0.74243 c -4.91614,-2.45945 -7.77541,-7.88627 -6.91851,-13.13114 1.16985,-7.16035 7.95559,-11.9383 14.8987,-10.4904 1.69913,0.35433 4.26227,1.55496 5.44866,2.55225 l 0.87157,0.73267 -1.30931,1.45249 -1.30932,1.45249 -0.75288,-0.4788 c -2.13628,-1.35857 -3.08011,-1.63798 -5.51539,-1.63279 -2.0578,0.004 -2.56322,0.10043 -3.72096,0.70705 -2.68379,1.40625 -4.35856,3.97702 -4.55555,6.9928 -0.2333,3.57157 1.37751,6.41665 4.54879,8.0343 1.59801,0.81514 2.04376,0.92256 3.82802,0.92256 1.66738,0 2.27936,-0.12717 3.51054,-0.72954 1.85998,-0.91 3.7112,-2.83248 3.55192,-3.68865 -0.0616,-0.33106 -0.12083,-0.69722 -0.13164,-0.81369 -0.0108,-0.11647 -1.53771,-0.19187 -3.3931,-0.16755 l -3.37344,0.0442 -0.0773,-2.01527 -0.0773,-2.01527 h 5.56738 5.56738 v 3.45805 c 0,3.38077 -0.0171,3.48292 -0.76512,4.57013 -1.64237,2.3871 -4.25819,4.28753 -6.97394,5.06665 -4.38308,1.03432 -6.24957,0.36816 -8.9192,-0.82254 z M 83.531311,136.90932 c -2.268244,-0.45081 -3.693255,-1.54201 -6.749148,-5.16815 -1.581978,-1.87718 -3.502824,-4.12743 -4.268546,-5.00056 l -1.392225,-1.5875 -2.081453,1.10706 c -1.144797,0.60888 -3.153013,1.43201 -4.462701,1.82918 -4.300353,0.91034 -8.112663,1.29391 -12.170833,0.15643 -8.121617,-2.3109 -14.057215,-8.43657 -16.456307,-16.98329 -1.975052,-7.03608 0.363872,-15.338363 5.98938,-21.25999 2.799649,-2.94702 7.492552,-5.535808 11.588858,-6.392867 2.696591,-0.569995 6.492379,-0.707212 9.913644,0.10732 10.87314,2.562139 18.296695,12.618268 17.585116,23.821227 -0.284639,4.48132 -1.930971,8.8765 -4.665559,12.45556 -0.722704,0.94588 -1.31834,1.81675 -1.323634,1.93525 -0.0191,0.42798 7.969099,9.64026 8.614206,9.93419 0.895224,0.40789 1.835717,0.37899 2.730855,-0.0839 0.409789,-0.21191 3.279085,-3.37709 6.37621,-7.03374 3.097128,-3.65665 6.059916,-6.93147 6.583976,-7.27737 1.32506,-0.87461 4.02723,-1.52706 5.40333,-1.30467 2.79822,0.45221 4.0318,1.40851 8.16902,6.33274 4.82052,5.73754 5.41488,5.77133 9.81082,0.55772 3.42483,-4.06187 3.97536,-4.58067 5.74779,-5.41661 l 1.45521,-0.68632 h 35.98334 35.98342 v 4.89479 h -35.4696 c -32.41518,0 -35.68493,0.0387 -36.32399,0.42989 -0.38626,0.23645 -2.07861,2.05215 -3.76078,4.0349 -3.64948,4.30158 -4.79564,5.07754 -7.77165,5.26144 -1.46496,0.0905 -2.18496,-0.005 -3.32506,-0.44055 -1.85064,-0.70719 -2.72303,-1.50099 -6.19644,-5.63823 -1.55333,-1.8502 -3.13237,-3.60637 -3.50896,-3.9026 -0.84659,-0.66593 -2.3349,-0.69898 -3.34132,-0.0742 -0.40898,0.2539 -3.206946,3.37428 -6.217709,6.93418 -3.010763,3.5599 -5.950366,6.79611 -6.532449,7.19158 -1.655514,1.12476 -4.051334,1.63783 -5.916761,1.26708 z m -9.561428,-14.31039 0.77561,-0.77561 -2.372148,-2.80975 c -1.304682,-1.54537 -2.372148,-2.90551 -2.372148,-3.02253 0,-0.11703 0.480361,-0.95599 1.067472,-1.86437 1.640464,-2.53812 2.24364,-4.7911 2.218923,-8.28814 -0.01725,-2.44194 -0.128937,-3.19753 -0.693791,-4.69412 -0.999376,-2.647852 -2.26319,-4.578095 -4.110992,-6.278773 -4.717397,-4.3418 -11.571057,-5.228085 -17.267029,-2.232899 -2.372667,1.24765 -3.982179,2.701058 -5.493539,4.960729 -1.803344,2.696223 -2.564232,5.191823 -2.554186,8.377353 0.014,4.43952 1.39088,7.70431 4.57799,10.85512 4.601836,4.54943 11.103497,5.73368 16.76758,3.05414 0.790675,-0.37405 1.498049,-0.68009 1.571947,-0.68009 0.0739,0 1.23552,1.30998 2.581389,2.91108 l 2.447034,2.91108 1.04014,-0.82381 c 0.57208,-0.45309 1.389166,-1.17283 1.815748,-1.59941 z M 55.581405,115.654 c -1.869285,-0.59273 -3.157604,-1.39848 -4.45679,-2.78742 -4.947004,-5.28874 -3.012187,-13.621613 3.754972,-16.17191 1.229536,-0.463368 1.919145,-0.545264 3.876818,-0.4604 2.085533,0.09041 2.586678,0.213138 4.035449,0.988296 4.377042,2.341916 6.409446,7.351174 4.851548,11.957604 -1.02621,3.03431 -0.965861,3.03587 -3.637344,-0.094 -1.286578,-1.50736 -2.658972,-3.12261 -3.049759,-3.58944 -0.390787,-0.46683 -0.807506,-0.84683 -0.926042,-0.84443 -0.118536,0.002 -0.968254,0.687 -1.888263,1.52135 l -1.672745,1.517 3.035704,3.57188 c 1.66964,1.96453 2.982807,3.65808 2.918151,3.76344 -0.242657,0.39541 -2.89093,0.99841 -4.310034,0.98136 -0.810333,-0.01 -1.949582,-0.16871 -2.531665,-0.35329 z"
         id="path839"
         inkscape:connector-curvature="0"
         sodipodi:nodetypes="ccccccsscccscccccscccsccccccccccscccccccccsscccccccccssccsccscscccscccccsccccsccsccccccscccsssssssccccccscsccscscccccc" />
      <path
         style="fill:#333333;stroke-width:0.26458335;fill-opacity:0.80000001"
         d="m 110.78189,112.83922 c -2.84855,-0.58389 -5.36683,-2.57941 -6.59869,-5.22891 -0.99415,-2.13823 -0.9893,-5.32747 0.0114,-7.51285 2.09789,-4.581411 7.74987,-6.660937 12.16751,-4.476778 1.05892,0.523541 1.46597,0.951006 1.46597,0.195179 v -0.957897 h 3.76683 v 8.996186 8.99581 h -3.73583 v -0.53714 c 0,-0.58128 0.0857,-0.87483 -0.47761,-0.54571 -0.21631,0.35 -2.83663,1.03089 -4.25323,1.182 -0.65484,0.0699 -1.71072,0.0204 -2.34639,-0.10989 z m 3.9291,-4.48471 c 3.66219,-1.8683 3.66219,-7.13241 0,-9.000715 -3.70903,-1.892205 -8.18463,1.641175 -7.12477,5.624835 0.85566,3.21614 4.26832,4.83314 7.12477,3.37588 z m -25.089941,4.09031 c -1.577158,-0.68485 -2.899984,-1.95133 -3.664694,-3.50857 -0.74028,-1.5075 -0.741773,-1.52157 -0.825172,-7.80552 l -0.08355,-6.272766 h 4.135859 l 0.132291,6.257096 c 0.115037,5.441 0.1861,6.18383 0.61444,6.65655 1.242049,1.37075 3.267215,1.38458 4.564737,0.0312 1.070778,-1.1803 0.625998,-1.31685 0.853919,-6.87587 l 0.07997,-6.068976 h 3.974635 l -0.08291,6.548826 c -0.07753,6.12301 -0.120084,6.61719 -0.655042,7.60677 -0.760339,1.40649 -2.071445,2.62753 -3.528915,3.28651 -1.4301,0.6466 -4.192913,0.71912 -5.515565,0.14478 z M 125.5637,106.8117 c 0,-4.76701 0.0866,-6.29238 0.41123,-7.24519 0.91914,-2.697508 3.68339,-4.708189 6.47275,-4.708189 2.95017,0 5.10079,1.240827 6.48637,3.742385 l 0.78486,1.416994 0.0832,6.41614 0.0832,6.41615 h -2.00141 -2.00141 v -5.56475 c 0,-6.23435 -0.1603,-7.01123 -1.63773,-7.937105 -1.21813,-0.763378 -2.6779,-0.560716 -3.76152,0.522217 l -0.81846,0.817938 -0.08,6.08085 -0.08,6.08085 h -1.97054 l -1.97055,-3e-5 z m 21.16666,-0.96204 v -7.022589 h -1.98437 l -1.98438,-1.07e-4 v -1.984268 -1.984732 h 1.98438 l 1.98437,3.57e-4 v -1.995504 -1.995853 h 4.10105 l 0.0487,1.742408 0.0662,2.248592 h 1.9357 1.91823 v 1.984744 1.984256 h -1.93236 -1.93236 l -0.052,7.011576 -0.052,7.03342 h -4.10144 z m 16.27188,6.3852 c -1.64904,-0.8015 -2.83933,-2.03713 -3.61286,-3.7505 -0.56297,-1.24698 -0.59792,-1.67223 -0.60886,-7.40833 l -0.0116,-6.218066 h 4.10104 l 0.009,5.876196 c 0.0102,6.38572 0.0734,6.71564 1.46367,7.6321 0.92483,0.60965 1.98437,0.65616 2.99872,0.13162 1.51443,-0.78315 1.5969,-1.15756 1.67469,-7.60319 l 0.0713,-6.036726 h 4.10104 v 5.620086 c 0,7.7447 -0.43534,9.19431 -3.37308,11.2317 -1.24953,0.86658 -1.59427,0.97337 -3.43959,1.06559 -1.76081,0.088 -2.23798,0.0115 -3.37379,-0.5405 z m 14.15779,-5.66873 c 0.002,-6.05758 0.0251,-6.33149 0.62906,-7.606767 1.99581,-4.214525 7.24322,-5.419721 10.93921,-2.512456 0.68149,0.53606 0.68953,0.536197 1.23828,0.02108 1.75809,-1.65036 5.08668,-2.08842 7.43149,-0.978022 1.64433,0.778679 2.76369,1.949332 3.81601,3.991271 0,0 0.28503,1.044974 0.28503,1.580204 v 5.89427 5.91625 h -3.96874 v -5.85594 c 0,-6.42578 -0.12352,-7.035015 -1.57884,-7.787592 -1.04765,-0.541759 -2.09908,-0.502379 -3.03353,0.113617 -1.39025,0.916455 -1.45352,1.246375 -1.46367,7.632095 l -0.009,5.89782 h -3.98716 l -0.0569,-5.97515 c -0.0621,-6.34946 -0.12745,-6.65885 -1.59518,-7.553788 -1.01525,-0.619042 -1.80371,-0.649933 -2.93132,-0.114848 -1.63707,0.776836 -1.74815,1.270926 -1.74815,7.775606 v 5.86818 h -3.96875 l 0.003,-6.30588 z"
         id="path837"
         inkscape:connector-curvature="0"
         sodipodi:nodetypes="csccscccccscccccsscccsccsccccccccccccsccccccsscccccccccccccccccccccccccccccccscccccccccsccccccscccscccsccccccscscccc" />
    </g>
  </g>
</svg>
